<?xml version="1.0" encoding="UTF-8"?>
<svg id="Layer_1" data-name="Layer 1" xmlns="http://www.w3.org/2000/svg" viewBox="0 0 431.57 233.97">
  <defs>
    <style>
      .cls-1 {
        fill: #fff;
      }

      .cls-2 {
        fill: #bdd6f0;
      }
    </style>
  </defs>
  <path class="cls-2" d="M397.7,107.74c-.15,0-.28,.04-.43,.04,2.69-6.22,4.2-13.08,4.2-20.29,0-28.27-22.92-51.19-51.19-51.19-9.99,0-19.29,2.91-27.17,7.86C312.45,18.25,286.98,0,257.23,0c-39.34,0-71.23,31.89-71.23,71.23,0,2.97,.24,5.89,.59,8.76-.2,0-.39-.03-.59-.03-26.38,0-47.76,21.38-47.76,47.76s21.38,47.76,47.76,47.76h211.7c18.71,0,33.87-15.16,33.87-33.87s-15.16-33.87-33.87-33.87Z"/>
  <path class="cls-1" d="M312.83,152.29c-.18,0-.34,.05-.51,.05,3.24-7.5,5.06-15.77,5.06-24.46,0-34.09-27.64-61.73-61.73-61.73-12.05,0-23.25,3.51-32.75,9.47-12.85-31.24-43.55-53.25-79.42-53.25-47.43,0-85.88,38.45-85.88,85.88,0,3.59,.29,7.1,.72,10.57-.24,0-.47-.04-.72-.04C25.78,118.8,0,144.58,0,176.39s25.78,57.58,57.58,57.58h255.24c22.55,0,40.84-18.28,40.84-40.84s-18.28-40.84-40.84-40.84Z"/>
</svg>