<?xml version="1.0" encoding="UTF-8"?>
<svg id="Layer_1" data-name="Layer 1" xmlns="http://www.w3.org/2000/svg" viewBox="0 0 548.04 401.35">
  <defs>
    <style>
      .cls-1 {
        fill: #fff;
      }

      .cls-2 {
        fill: #ffdc7c;
      }
    </style>
  </defs>
  <g>
    <circle class="cls-2" cx="173.71" cy="173.71" r="70.26" transform="translate(-25.77 317.09) rotate(-80.71)"/>
    <g>
      <path class="cls-2" d="M173.71,76.76h0c-4.65,0-8.42-3.77-8.42-8.42V8.42c0-4.65,3.77-8.42,8.42-8.42h0c4.65,0,8.42,3.77,8.42,8.42v59.92c0,4.65-3.77,8.42-8.42,8.42Z"/>
      <path class="cls-2" d="M173.71,347.42h0c-4.65,0-8.42-3.77-8.42-8.42v-59.92c0-4.65,3.77-8.42,8.42-8.42h0c4.65,0,8.42,3.77,8.42,8.42v59.92c0,4.65-3.77,8.42-8.42,8.42Z"/>
    </g>
    <g>
      <path class="cls-2" d="M242.27,105.16h0c-3.29-3.29-3.29-8.62,0-11.91l42.37-42.37c3.29-3.29,8.62-3.29,11.91,0h0c3.29,3.29,3.29,8.62,0,11.91l-42.37,42.37c-3.29,3.29-8.62,3.29-11.91,0Z"/>
      <path class="cls-2" d="M50.88,296.55h0c-3.29-3.29-3.29-8.62,0-11.91l42.37-42.37c3.29-3.29,8.62-3.29,11.91,0h0c3.29,3.29,3.29,8.62,0,11.91l-42.37,42.37c-3.29,3.29-8.62,3.29-11.91,0Z"/>
    </g>
    <g>
      <path class="cls-2" d="M270.66,173.71h0c0-4.65,3.77-8.42,8.42-8.42h59.92c4.65,0,8.42,3.77,8.42,8.42h0c0,4.65-3.77,8.42-8.42,8.42h-59.92c-4.65,0-8.42-3.77-8.42-8.42Z"/>
      <path class="cls-2" d="M0,173.71H0c0-4.65,3.77-8.42,8.42-8.42h59.92c4.65,0,8.42,3.77,8.42,8.42h0c0,4.65-3.77,8.42-8.42,8.42H8.42c-4.65,0-8.42-3.77-8.42-8.42Z"/>
    </g>
    <g>
      <path class="cls-2" d="M242.27,242.27h0c3.29-3.29,8.62-3.29,11.91,0l42.37,42.37c3.29,3.29,3.29,8.62,0,11.91h0c-3.29,3.29-8.62,3.29-11.91,0l-42.37-42.37c-3.29-3.29-3.29-8.62,0-11.91Z"/>
      <path class="cls-2" d="M50.88,50.88h0c3.29-3.29,8.62-3.29,11.91,0l42.37,42.37c3.29,3.29,3.29,8.62,0,11.91h0c-3.29,3.29-8.62,3.29-11.91,0L50.88,62.79c-3.29-3.29-3.29-8.62,0-11.91Z"/>
    </g>
  </g>
  <path class="cls-1" d="M495.63,296.51c-.23,0-.43,.06-.66,.07,4.16-9.63,6.5-20.24,6.5-31.4,0-43.76-35.47-79.23-79.23-79.23-15.46,0-29.85,4.5-42.04,12.16-16.5-40.09-55.9-68.34-101.94-68.34-60.88,0-110.23,49.35-110.23,110.23,0,4.6,.37,9.11,.92,13.56-.31,0-.61-.05-.92-.05-40.82,0-73.91,33.09-73.91,73.91s33.09,73.91,73.91,73.91H495.63c28.95,0,52.42-23.47,52.42-52.42s-23.47-52.42-52.42-52.42Z"/>
</svg>