<?xml version="1.0" encoding="UTF-8"?>
<svg id="Layer_1" data-name="Layer 1" xmlns="http://www.w3.org/2000/svg" viewBox="0 0 416.76 387.27">
  <defs>
    <style>
      .cls-1 {
        fill: #fff;
      }

      .cls-2 {
        fill: #bdd6f0;
      }
    </style>
  </defs>
  <path class="cls-1" d="M368.64,153.08c-.21,0-.4,.06-.61,.06,3.82-8.84,5.96-18.58,5.96-28.83,0-40.17-32.57-72.74-72.74-72.74-14.2,0-27.4,4.13-38.6,11.17C247.51,25.94,211.33,0,169.06,0c-55.89,0-101.21,45.31-101.21,101.21,0,4.23,.34,8.36,.84,12.45-.28,0-.56-.04-.84-.04C30.38,113.62,0,144,0,181.47s30.38,67.86,67.86,67.86H368.64c26.58,0,48.12-21.55,48.12-48.12s-21.55-48.12-48.12-48.12Z"/>
  <path class="cls-2" d="M133.36,367.9c-8.17,17.01-28.59,24.17-45.59,15.99-17.01-8.17-24.17-28.59-15.99-45.59,8.17-17.01,61.04-48.12,61.04-48.12,0,0,8.72,60.72,.55,77.73Z"/>
  <path class="cls-2" d="M218.32,367.9c-8.17,17.01-28.59,24.17-45.59,15.99-17.01-8.17-24.17-28.59-15.99-45.59,8.17-17.01,61.04-48.12,61.04-48.12,0,0,8.72,60.72,.55,77.73Z"/>
  <path class="cls-2" d="M304.48,367.9c-8.17,17.01-28.59,24.17-45.59,15.99-17.01-8.17-24.17-28.59-15.99-45.59,8.17-17.01,61.04-48.12,61.04-48.12,0,0,8.72,60.72,.55,77.73Z"/>
</svg>