<?xml version="1.0" encoding="UTF-8"?>
<svg id="Layer_1" data-name="Layer 1" xmlns="http://www.w3.org/2000/svg" viewBox="0 0 435.95 260.81">
  <defs>
    <style>
      .cls-1 {
        fill: #fff;
      }
    </style>
  </defs>
  <path class="cls-1" d="M385.61,160.13c-.22,0-.42,.06-.63,.06,4-9.25,6.24-19.44,6.24-30.15,0-42.02-34.07-76.09-76.09-76.09-14.85,0-28.66,4.32-40.38,11.68C258.91,27.13,221.07,0,176.85,0c-58.47,0-105.87,47.4-105.87,105.87,0,4.42,.36,8.75,.88,13.03-.3,0-.58-.04-.88-.04C31.78,118.85,0,150.63,0,189.83s31.78,70.98,70.98,70.98H385.61c27.8,0,50.34-22.54,50.34-50.34s-22.54-50.34-50.34-50.34Z"/>
</svg>