<?xml version="1.0" encoding="UTF-8"?>
<svg id="Layer_1" data-name="Layer 1" xmlns="http://www.w3.org/2000/svg" viewBox="0 0 417.05 354.91">
  <defs>
    <style>
      .cls-1 {
        fill: #fff;
      }

      .cls-2 {
        fill: #ffdc7c;
      }
    </style>
  </defs>
  <path class="cls-2" d="M325.45,154.19c11.65,0,22.63-2.97,32.21-8.2-15.85,17.08-38.51,27.75-63.63,27.75-47.97,0-86.87-38.9-86.87-86.87S246.07,0,294.04,0c25.12,0,47.78,10.67,63.63,27.75-9.58-5.24-20.56-8.2-32.21-8.2-37.18,0-67.32,30.14-67.32,67.32s30.14,67.32,67.32,67.32Z"/>
  <path class="cls-1" d="M368.9,258.59c-.21,0-.4,.06-.61,.06,3.83-8.85,5.97-18.59,5.97-28.85,0-40.2-32.59-72.79-72.79-72.79-14.21,0-27.42,4.13-38.63,11.17-15.15-36.84-51.36-62.79-93.66-62.79-55.93,0-101.28,45.34-101.28,101.28,0,4.23,.34,8.37,.84,12.46-.28,0-.56-.04-.84-.04C30.4,219.1,0,249.5,0,287s30.4,67.9,67.9,67.9H368.9c26.6,0,48.16-21.56,48.16-48.16s-21.56-48.16-48.16-48.16Z"/>
</svg>