<?xml version="1.0" encoding="UTF-8"?>
<svg id="Layer_1" data-name="Layer 1" xmlns="http://www.w3.org/2000/svg" viewBox="0 0 378.96 408.89">
  <defs>
    <style>
      .cls-1 {
        fill: #fff;
      }
    </style>
  </defs>
  <path class="cls-1" d="M335.2,139.2c-.19,0-.36,.05-.55,.06,3.48-8.04,5.42-16.89,5.42-26.21,0-36.53-29.61-66.14-66.14-66.14-12.91,0-24.92,3.76-35.1,10.15C225.06,23.58,192.17,0,153.73,0,102.9,0,61.7,41.2,61.7,92.03c0,3.84,.31,7.6,.77,11.32-.26,0-.51-.04-.77-.04C27.63,103.31,0,130.94,0,165.01s27.63,61.7,61.7,61.7H335.2c24.17,0,43.76-19.59,43.76-43.76s-19.59-43.76-43.76-43.76Z"/>
  <circle class="cls-1" cx="104.83" cy="286.88" r="13.51"/>
  <circle class="cls-1" cx="189.48" cy="286.88" r="13.51"/>
  <circle class="cls-1" cx="189.48" cy="395.38" r="13.51"/>
  <circle class="cls-1" cx="144.46" cy="340" r="13.51"/>
  <path class="cls-1" d="M248.91,340c0,7.46-6.05,13.51-13.51,13.51s-13.51-6.05-13.51-13.51,6.05-13.51,13.51-13.51,13.51,6.05,13.51,13.51Z"/>
  <circle class="cls-1" cx="274.13" cy="286.88" r="13.51"/>
</svg>