<?xml version="1.0" encoding="UTF-8"?>
<svg id="Layer_1" data-name="Layer 1" xmlns="http://www.w3.org/2000/svg" viewBox="0 0 390.68 410.85">
  <defs>
    <style>
      .cls-1 {
        fill: #ffdc7c;
      }

      .cls-2 {
        fill: #bdd6f0;
      }
    </style>
  </defs>
  <path class="cls-2" d="M345.57,143.5c-.19,0-.37,.05-.57,.06,3.58-8.29,5.59-17.42,5.59-27.02,0-37.66-30.53-68.19-68.19-68.19-13.31,0-25.69,3.87-36.18,10.47C232.02,24.31,198.11,0,158.48,0,106.09,0,63.61,42.48,63.61,94.87c0,3.96,.32,7.84,.79,11.67-.27,0-.52-.04-.79-.04C28.48,106.51,0,134.99,0,170.12s28.48,63.61,63.61,63.61H345.57c24.92,0,45.11-20.2,45.11-45.11s-20.2-45.11-45.11-45.11Z"/>
  <polygon class="cls-1" points="174.06 260.99 149.64 335.36 183.31 335.36 161.48 410.85 241.04 304.28 199.97 304.28 215.51 260.99 174.06 260.99"/>
</svg>